<mxfile host="Electron" agent="Mozilla/5.0 (Macintosh; Intel Mac OS X 10_15_7) AppleWebKit/537.36 (KHTML, like Gecko) draw.io/24.7.17 Chrome/128.0.6613.36 Electron/32.0.1 Safari/537.36" version="24.7.17">
  <diagram name="Page-1" id="B5uiptkvqI5wHECxcTK3">
    <mxGraphModel dx="1354" dy="752" grid="1" gridSize="10" guides="1" tooltips="1" connect="1" arrows="1" fold="1" page="1" pageScale="1" pageWidth="1169" pageHeight="827" math="0" shadow="0">
      <root>
        <mxCell id="0" />
        <mxCell id="1" parent="0" />
        <mxCell id="qF5nUv7KFeKQ0Bj9-95i-1" value="TripCoordinator" style="shape=umlActor;verticalLabelPosition=bottom;verticalAlign=top;html=1;outlineConnect=0;" vertex="1" parent="1">
          <mxGeometry x="300" y="120" width="90" height="160" as="geometry" />
        </mxCell>
        <mxCell id="qF5nUv7KFeKQ0Bj9-95i-2" value="Trip management system" style="ellipse;whiteSpace=wrap;html=1;" vertex="1" parent="1">
          <mxGeometry x="510" y="140" width="180" height="100" as="geometry" />
        </mxCell>
        <mxCell id="qF5nUv7KFeKQ0Bj9-95i-3" value="Trips" style="ellipse;whiteSpace=wrap;html=1;" vertex="1" parent="1">
          <mxGeometry x="735" y="40" width="120" height="80" as="geometry" />
        </mxCell>
        <mxCell id="qF5nUv7KFeKQ0Bj9-95i-4" value="Travellers" style="ellipse;whiteSpace=wrap;html=1;" vertex="1" parent="1">
          <mxGeometry x="795" y="160" width="120" height="80" as="geometry" />
        </mxCell>
        <mxCell id="qF5nUv7KFeKQ0Bj9-95i-5" value="Trip legs" style="ellipse;whiteSpace=wrap;html=1;" vertex="1" parent="1">
          <mxGeometry x="735" y="290" width="120" height="80" as="geometry" />
        </mxCell>
        <mxCell id="qF5nUv7KFeKQ0Bj9-95i-6" value="Reporting and analytics" style="ellipse;whiteSpace=wrap;html=1;" vertex="1" parent="1">
          <mxGeometry x="530" y="340" width="140" height="100" as="geometry" />
        </mxCell>
        <mxCell id="qF5nUv7KFeKQ0Bj9-95i-7" value="" style="endArrow=classic;html=1;rounded=0;entryX=0.283;entryY=0;entryDx=0;entryDy=0;entryPerimeter=0;" edge="1" parent="1" target="qF5nUv7KFeKQ0Bj9-95i-5">
          <mxGeometry width="50" height="50" relative="1" as="geometry">
            <mxPoint x="690" y="200" as="sourcePoint" />
            <mxPoint x="750" y="300" as="targetPoint" />
          </mxGeometry>
        </mxCell>
        <mxCell id="qF5nUv7KFeKQ0Bj9-95i-8" value="" style="endArrow=classic;html=1;rounded=0;entryX=0.092;entryY=0.85;entryDx=0;entryDy=0;entryPerimeter=0;" edge="1" parent="1" target="qF5nUv7KFeKQ0Bj9-95i-3">
          <mxGeometry width="50" height="50" relative="1" as="geometry">
            <mxPoint x="670" y="160" as="sourcePoint" />
            <mxPoint x="720" y="110" as="targetPoint" />
          </mxGeometry>
        </mxCell>
        <mxCell id="qF5nUv7KFeKQ0Bj9-95i-9" value="" style="endArrow=classic;html=1;rounded=0;entryX=0.033;entryY=0.425;entryDx=0;entryDy=0;entryPerimeter=0;" edge="1" parent="1" target="qF5nUv7KFeKQ0Bj9-95i-4">
          <mxGeometry width="50" height="50" relative="1" as="geometry">
            <mxPoint x="690" y="180" as="sourcePoint" />
            <mxPoint x="740" y="130" as="targetPoint" />
          </mxGeometry>
        </mxCell>
        <mxCell id="qF5nUv7KFeKQ0Bj9-95i-10" value="" style="endArrow=classic;html=1;rounded=0;" edge="1" parent="1" target="qF5nUv7KFeKQ0Bj9-95i-6">
          <mxGeometry width="50" height="50" relative="1" as="geometry">
            <mxPoint x="580" y="240" as="sourcePoint" />
            <mxPoint x="630" y="190" as="targetPoint" />
          </mxGeometry>
        </mxCell>
        <mxCell id="qF5nUv7KFeKQ0Bj9-95i-11" value="" style="endArrow=classic;html=1;rounded=0;entryX=0;entryY=0.5;entryDx=0;entryDy=0;" edge="1" parent="1" target="qF5nUv7KFeKQ0Bj9-95i-2">
          <mxGeometry width="50" height="50" relative="1" as="geometry">
            <mxPoint x="380" y="210" as="sourcePoint" />
            <mxPoint x="430" y="160" as="targetPoint" />
          </mxGeometry>
        </mxCell>
        <mxCell id="qF5nUv7KFeKQ0Bj9-95i-12" value="Trip coordinator functions" style="ellipse;whiteSpace=wrap;html=1;" vertex="1" parent="1">
          <mxGeometry x="370" y="390" width="120" height="80" as="geometry" />
        </mxCell>
        <mxCell id="qF5nUv7KFeKQ0Bj9-95i-13" value="" style="endArrow=classic;html=1;rounded=0;entryX=0.5;entryY=0;entryDx=0;entryDy=0;exitX=0;exitY=1;exitDx=0;exitDy=0;" edge="1" parent="1" source="qF5nUv7KFeKQ0Bj9-95i-2" target="qF5nUv7KFeKQ0Bj9-95i-12">
          <mxGeometry width="50" height="50" relative="1" as="geometry">
            <mxPoint x="460" y="290" as="sourcePoint" />
            <mxPoint x="510" y="240" as="targetPoint" />
          </mxGeometry>
        </mxCell>
        <mxCell id="qF5nUv7KFeKQ0Bj9-95i-14" value="Trip manager" style="shape=umlActor;verticalLabelPosition=bottom;verticalAlign=top;html=1;outlineConnect=0;" vertex="1" parent="1">
          <mxGeometry x="280" y="520" width="80" height="150" as="geometry" />
        </mxCell>
        <mxCell id="qF5nUv7KFeKQ0Bj9-95i-15" value="" style="endArrow=classic;html=1;rounded=0;entryX=0.3;entryY=0.975;entryDx=0;entryDy=0;entryPerimeter=0;" edge="1" parent="1" source="qF5nUv7KFeKQ0Bj9-95i-14" target="qF5nUv7KFeKQ0Bj9-95i-12">
          <mxGeometry width="50" height="50" relative="1" as="geometry">
            <mxPoint x="360" y="580" as="sourcePoint" />
            <mxPoint x="410" y="530" as="targetPoint" />
          </mxGeometry>
        </mxCell>
        <mxCell id="qF5nUv7KFeKQ0Bj9-95i-16" value="Trip Manager functions" style="ellipse;whiteSpace=wrap;html=1;" vertex="1" parent="1">
          <mxGeometry x="470" y="555" width="120" height="80" as="geometry" />
        </mxCell>
        <mxCell id="qF5nUv7KFeKQ0Bj9-95i-17" value="" style="endArrow=classic;html=1;rounded=0;entryX=0;entryY=0.5;entryDx=0;entryDy=0;" edge="1" parent="1" target="qF5nUv7KFeKQ0Bj9-95i-16">
          <mxGeometry width="50" height="50" relative="1" as="geometry">
            <mxPoint x="360" y="605" as="sourcePoint" />
            <mxPoint x="410" y="555" as="targetPoint" />
          </mxGeometry>
        </mxCell>
        <mxCell id="qF5nUv7KFeKQ0Bj9-95i-18" value="Administrator" style="shape=umlActor;verticalLabelPosition=bottom;verticalAlign=top;html=1;outlineConnect=0;" vertex="1" parent="1">
          <mxGeometry x="825" y="500" width="90" height="170" as="geometry" />
        </mxCell>
        <mxCell id="qF5nUv7KFeKQ0Bj9-95i-24" value="" style="endArrow=classic;html=1;rounded=0;entryX=1;entryY=0.5;entryDx=0;entryDy=0;" edge="1" parent="1" source="qF5nUv7KFeKQ0Bj9-95i-18" target="qF5nUv7KFeKQ0Bj9-95i-16">
          <mxGeometry width="50" height="50" relative="1" as="geometry">
            <mxPoint x="720" y="600" as="sourcePoint" />
            <mxPoint x="770" y="550" as="targetPoint" />
          </mxGeometry>
        </mxCell>
        <mxCell id="qF5nUv7KFeKQ0Bj9-95i-26" value="" style="endArrow=classic;html=1;rounded=0;" edge="1" parent="1" target="qF5nUv7KFeKQ0Bj9-95i-31">
          <mxGeometry width="50" height="50" relative="1" as="geometry">
            <mxPoint x="930" y="540" as="sourcePoint" />
            <mxPoint x="1016.7179882264859" y="453.2820117735141" as="targetPoint" />
          </mxGeometry>
        </mxCell>
        <mxCell id="qF5nUv7KFeKQ0Bj9-95i-27" value="Traveller" style="shape=umlActor;verticalLabelPosition=bottom;verticalAlign=top;html=1;outlineConnect=0;" vertex="1" parent="1">
          <mxGeometry x="60" y="120" width="100" height="180" as="geometry" />
        </mxCell>
        <mxCell id="qF5nUv7KFeKQ0Bj9-95i-28" value="" style="endArrow=classic;html=1;rounded=0;" edge="1" parent="1" target="qF5nUv7KFeKQ0Bj9-95i-1">
          <mxGeometry width="50" height="50" relative="1" as="geometry">
            <mxPoint x="170" y="210" as="sourcePoint" />
            <mxPoint x="140" y="160" as="targetPoint" />
          </mxGeometry>
        </mxCell>
        <mxCell id="qF5nUv7KFeKQ0Bj9-95i-31" value="Administrator Functions" style="ellipse;whiteSpace=wrap;html=1;" vertex="1" parent="1">
          <mxGeometry x="970" y="360" width="120" height="80" as="geometry" />
        </mxCell>
        <mxCell id="qF5nUv7KFeKQ0Bj9-95i-32" value="Reporting and Analytics" style="ellipse;whiteSpace=wrap;html=1;" vertex="1" parent="1">
          <mxGeometry x="510" y="40" width="120" height="80" as="geometry" />
        </mxCell>
        <mxCell id="qF5nUv7KFeKQ0Bj9-95i-33" value="" style="curved=1;endArrow=classic;html=1;rounded=0;entryX=0.039;entryY=0.655;entryDx=0;entryDy=0;entryPerimeter=0;exitX=0.5;exitY=0;exitDx=0;exitDy=0;exitPerimeter=0;" edge="1" parent="1" source="qF5nUv7KFeKQ0Bj9-95i-14" target="qF5nUv7KFeKQ0Bj9-95i-2">
          <mxGeometry width="50" height="50" relative="1" as="geometry">
            <mxPoint x="300" y="510" as="sourcePoint" />
            <mxPoint x="350" y="460" as="targetPoint" />
            <Array as="points">
              <mxPoint x="350" y="510" />
              <mxPoint x="320" y="490" />
              <mxPoint x="300" y="460" />
            </Array>
          </mxGeometry>
        </mxCell>
        <mxCell id="qF5nUv7KFeKQ0Bj9-95i-34" value="" style="curved=1;endArrow=classic;html=1;rounded=0;exitX=0.75;exitY=0.1;exitDx=0;exitDy=0;exitPerimeter=0;" edge="1" parent="1" source="qF5nUv7KFeKQ0Bj9-95i-18" target="qF5nUv7KFeKQ0Bj9-95i-2">
          <mxGeometry width="50" height="50" relative="1" as="geometry">
            <mxPoint x="870" y="500" as="sourcePoint" />
            <mxPoint x="920" y="450" as="targetPoint" />
            <Array as="points">
              <mxPoint x="920" y="500" />
              <mxPoint x="740" y="420" />
            </Array>
          </mxGeometry>
        </mxCell>
        <mxCell id="qF5nUv7KFeKQ0Bj9-95i-35" value="" style="endArrow=classic;html=1;rounded=0;entryX=0.5;entryY=1;entryDx=0;entryDy=0;exitX=0.5;exitY=0;exitDx=0;exitDy=0;" edge="1" parent="1" source="qF5nUv7KFeKQ0Bj9-95i-2" target="qF5nUv7KFeKQ0Bj9-95i-32">
          <mxGeometry width="50" height="50" relative="1" as="geometry">
            <mxPoint x="630" y="150" as="sourcePoint" />
            <mxPoint x="680" y="100" as="targetPoint" />
          </mxGeometry>
        </mxCell>
      </root>
    </mxGraphModel>
  </diagram>
</mxfile>
